# xmcd
#
# Track frame offsets: 
#        150
#        37159
#        58962
#        82397
#        109230
#        139300
#
# Disc length: 2155 seconds
#
# Revision: 2
# Processed by: cddbd v1.5.2PL0 Copyright (c) Steve Scherf et al.
# Submitted via: ExactAudioCopy v1.0b1
#
DISCID=60086906
DTITLE=Miles Davis - Relaxin'
DYEAR=1956
DGENRE=Jazz
TTITLE0=If I Were a Bell
TTITLE1=You're My Everything
TTITLE2=I Could Write a Book
TTITLE3=Oleo
TTITLE4=It Could Happen to You
TTITLE5=Woody 'n' You
EXTD=YEAR: 1956
EXTT0=
EXTT1=
EXTT2=
EXTT3=
EXTT4=
EXTT5=
PLAYORDER=
